<svg width="200" height="100" fill="none" xmlns="http://www.w3.org/2000/svg"><path d="M3 31.542C4.743 31.25 7.021 31 9.925 31c3.564 0 6.177.833 7.836 2.333 1.534 1.334 2.446 3.375 2.446 5.877 0 2.541-.748 4.541-2.158 6-1.907 2.04-5.016 3.082-8.54 3.082-1.078 0-2.073-.041-2.9-.25v11.252H3V31.542zm3.609 13.54c.787.21 1.782.292 2.985.292 4.351 0 7.006-2.125 7.006-6 0-3.708-2.612-5.5-6.592-5.5-1.575 0-2.778.126-3.4.292v10.917zm35.447 3.959c0 7.458-5.143 10.71-9.993 10.71-5.432 0-9.619-4-9.619-10.377 0-6.75 4.395-10.708 9.95-10.708 5.764-.001 9.662 4.209 9.662 10.375zm-15.92.208c0 4.417 2.529 7.75 6.094 7.75 3.483 0 6.093-3.292 6.093-7.833 0-3.417-1.699-7.75-6.012-7.75s-6.175 4-6.175 7.833zm20.022 6.292c1.078.708 2.986 1.458 4.81 1.458 2.653 0 3.897-1.333 3.897-3 0-1.75-1.035-2.708-3.732-3.708-3.606-1.292-5.306-3.292-5.306-5.708 0-3.25 2.612-5.917 6.923-5.917 2.032 0 3.816.584 4.935 1.25l-.912 2.667a7.782 7.782 0 00-4.104-1.167c-2.156 0-3.358 1.25-3.358 2.75 0 1.667 1.204 2.417 3.816 3.417 3.482 1.333 5.265 3.083 5.265 6.083 0 3.541-2.736 6.041-7.504 6.041-2.197 0-4.229-.541-5.639-1.375l.91-2.791zM67.47 33.33v5.792h5.222v2.792H67.47v10.874c0 2.5.703 3.917 2.736 3.917.954 0 1.658-.125 2.114-.25l.166 2.75c-.703.291-1.824.5-3.232.5-1.7 0-3.07-.542-3.94-1.542-1.035-1.083-1.41-2.875-1.41-5.25v-11h-3.11v-2.791h3.11V34.29l3.566-.958zm26.368 5.794a87.96 87.96 0 00-.166 5.541v11.708c0 4.625-.912 7.458-2.861 9.21C88.862 67.416 86.043 68 83.514 68c-2.404 0-5.058-.583-6.676-1.667l.912-2.791c1.327.833 3.4 1.583 5.887 1.583 3.731 0 6.468-1.958 6.468-7.041v-2.25h-.083c-1.12 1.875-3.276 3.375-6.385 3.375-4.975 0-8.54-4.25-8.54-9.835 0-6.833 4.436-10.708 9.038-10.708 3.484 0 5.39 1.834 6.261 3.5h.083l.166-3.041h3.193zm-3.773 7.958c0-.625-.042-1.167-.208-1.667-.663-2.125-2.446-3.875-5.099-3.875-3.484 0-5.97 2.958-5.97 7.625 0 3.958 1.99 7.25 5.929 7.25 2.238 0 4.27-1.417 5.058-3.75.207-.625.291-1.333.291-1.958v-3.625h-.001zm9.41-1.667c0-2.375-.042-4.416-.167-6.291h3.194l.123 3.958h.166c.912-2.708 3.109-4.417 5.555-4.417.415 0 .704.042 1.035.125v3.459a5.436 5.436 0 00-1.242-.126c-2.57 0-4.396 1.959-4.892 4.709a10.36 10.36 0 00-.166 1.708v10.75h-3.607V45.415zm15.175 4.458c.083 4.958 3.232 7 6.88 7 2.614 0 4.188-.458 5.556-1.042l.622 2.625c-1.286.584-3.483 1.25-6.675 1.25-6.178 0-9.867-4.083-9.867-10.166s3.565-10.876 9.411-10.876c6.55 0 8.291 5.791 8.291 9.5 0 .75-.082 1.333-.124 1.708H114.65v.001zm10.696-2.625c.04-2.333-.955-5.958-5.058-5.958-3.69 0-5.307 3.417-5.598 5.958h10.656zm7.605 7.876c1.617 1 3.98 1.833 6.467 1.833 3.69 0 5.846-1.958 5.846-4.791 0-2.625-1.492-4.125-5.265-5.583-4.561-1.625-7.38-4-7.38-7.958 0-4.375 3.607-7.625 9.038-7.625 2.861 0 4.934.667 6.177 1.375l-.995 2.958A11.084 11.084 0 00141.533 34c-3.814 0-5.266 2.291-5.266 4.208 0 2.625 1.699 3.916 5.556 5.416 4.726 1.835 7.131 4.125 7.131 8.25 0 4.333-3.192 8.083-9.784 8.083-2.695 0-5.639-.792-7.133-1.791l.914-3.042zm43.987 8.541c-3.772-1-7.462-2.125-10.696-3.25-.58-.208-1.161-.416-1.7-.416-6.633-.25-12.313-5.167-12.313-14.208 0-9 5.473-14.791 13.018-14.791 7.587 0 12.522 5.916 12.522 14.208 0 7.208-3.317 11.833-7.96 13.458v.166c2.778.708 5.804 1.375 8.167 1.792l-1.038 3.041zm-2.985-18.29c0-5.625-2.9-11.418-8.83-11.418-6.095 0-9.08 5.666-9.038 11.75-.042 5.959 3.233 11.334 8.872 11.334 5.764 0 8.996-5.25 8.996-11.667zm8.498-13.917h3.608v25.04h11.94v3.042h-15.548V31.458z" fill="#464646"/></svg>