<svg width="200" height="100" fill="none" xmlns="http://www.w3.org/2000/svg"><path d="M30.328 71.519s-2.886 1.755 2.01 2.258c5.88.752 9.031.628 15.555-.627 0 0 1.756 1.127 4.14 2.01-14.678 6.271-33.244-.376-21.703-3.638l-.002-.004zm-1.881-8.154s-3.136 2.385 1.755 2.886c6.398.627 11.434.751 20.074-1.003 0 0 1.127 1.254 3.01 1.882-17.689 5.269-37.51.501-24.84-3.763v-.002zm34.626 14.301s2.133 1.756-2.385 3.136c-8.405 2.51-35.252 3.262-42.78 0-2.634-1.127 2.385-2.776 4.015-3.01 1.633-.376 2.509-.376 2.509-.376-2.885-2.008-19.195 4.141-8.281 5.88 29.983 4.892 54.697-2.133 46.919-5.644l.003.014zM31.707 54.834s-13.675 3.262-4.894 4.39c3.763.502 11.166.376 18.065-.125 5.645-.502 11.291-1.506 11.291-1.506s-2.009.878-3.387 1.755c-13.926 3.638-40.648 2.01-32.994-1.755 6.524-3.136 11.919-2.777 11.919-2.777v.018zM56.17 68.508c14.05-7.276 7.526-14.301 3.01-13.422-1.127.251-1.633.5-1.633.5s.375-.75 1.254-1.002c8.907-3.136 15.933 9.408-2.886 14.302 0 0 .126-.126.251-.376l.004-.002zm-23.083 19.82c13.549.88 34.251-.5 34.751-6.898 0 0-1.003 2.508-11.165 4.39-11.541 2.133-25.843 1.882-34.251.501 0 0 1.756 1.506 10.665 2.01v-.002z" fill="#434343"/><path d="M47.64 13.433s7.779 7.906-7.401 19.822c-12.169 9.66-2.777 15.18 0 21.453-7.151-6.398-12.295-12.043-8.783-17.314 5.145-7.778 19.32-11.54 16.183-23.96h.002zm-4.014 36.005c3.638 4.141-1.005 7.906-1.005 7.906s9.284-4.77 5.018-10.666c-3.887-5.645-6.9-8.405 9.408-17.814 0 0-25.718 6.397-13.423 20.573l.002.002zm80.392 14.893V45.26c0-4.867-2.724-8.173-9.535-8.173-3.892 0-7.203.973-10.12 2.14l.973 3.503c2.14-.78 4.868-1.557 7.785-1.557 3.698 0 5.448 1.557 5.448 4.672v2.531h-1.93c-9.343 0-13.622 3.504-13.622 9.147 0 4.671 2.919 7.396 8.173 7.396 3.309 0 5.839-1.557 8.173-3.504l.389 2.919h4.279l-.013-.002zm-5.452-6.226c-1.943 1.75-4.086 2.724-6.033 2.724-2.532 0-4.087-1.556-4.087-4.279s1.557-4.671 7.785-4.671h2.335v6.228-.002zm23.742 6.228h-6.811l-8.171-26.661h5.839l5.06 16.35 1.168 4.867c2.532-7.007 4.475-14.207 5.254-21.212h5.838c-1.557 8.758-4.28 18.293-8.173 26.66l-.004-.004zm31.527 0V45.259c0-4.867-2.724-8.173-9.539-8.173-3.892 0-7.199.973-10.12 2.14l.779 3.503c2.336-.78 5.06-1.557 7.979-1.557 3.698 0 5.449 1.557 5.449 4.672v2.531h-1.944c-9.342 0-13.622 3.504-13.622 9.147 0 4.671 2.725 7.396 7.979 7.396 3.504 0 6.034-1.557 8.368-3.504l.388 2.919h4.283zm-5.449-6.228c-1.944 1.75-4.086 2.724-6.033 2.724-2.532 0-4.087-1.556-4.087-4.279s1.557-4.671 7.784-4.671h2.336v6.228-.002zM96.964 68.808c-1.557 2.336-3.892 4.087-6.811 5.06l-2.532-3.113c1.947-1.168 3.892-2.919 4.671-4.475.78-1.362.974-3.31.974-7.785V28.133h5.84v29.972c0 6.033-.586 8.367-2.14 10.703h-.002z" fill="#434343"/></svg>