<svg width="200" height="100" fill="none" xmlns="http://www.w3.org/2000/svg"><path fill-rule="evenodd" clip-rule="evenodd" d="M38.876 29h.433c1.588 0 2.887.569 2.887 2.418v24.175c0 5.83-3.031 10.239-8.227 13.225-2.31 1.28-5.196 1.706-7.938 1.706h-1.155c-5.917 0-10.68-2.56-13.711-7.679C9.722 60.428 9 58.152 9 55.45v-1.137c0-5.973 2.887-10.381 8.082-13.368 2.454-1.422 5.052-1.848 7.794-1.848h1.155c4.041 0 7.505.995 10.392 3.555V31.133c0-1.564.866-2.133 2.453-2.133zm92.598 37.37l.002.003c.062.096.128.199.204.312.524 1.548.076 3.555-1.876 3.555h-.433c-.866 0-2.02-.711-2.598-1.28-.56-.552-1.155-1.037-1.766-1.537-.649-.53-1.318-1.075-1.986-1.734l-4.33-4.124v6.542c0 1.422-.866 2.133-2.454 2.133h-.433c-1.587 0-2.886-.569-2.886-2.133V31.275c0-1.564 1.299-2.275 2.886-2.275h.433c1.588 0 2.454.711 2.454 2.275v16.923c1.991-1.472 3.296-2.876 4.624-4.305a59.233 59.233 0 011.871-1.952c.577-.711 3.03-2.986 3.896-2.986 1.413-.633 2.598-.07 2.598 2.133v.568c0 .854-.721 1.991-1.299 2.56l-3.608 3.84-6.639 6.683 8.515 8.533c.866.853 1.588 1.564 2.31 2.417.211.208.345.417.515.68zm56.639-27.416h-.577c-3.175 0-6.062.854-8.66 2.702-4.33 3.129-6.783 7.253-6.783 12.657v13.936c0 1.564.577 1.99 2.165 1.99h.433c1.587 0 3.175-.568 3.175-1.99V55.166c0-2.844.577-5.546 2.742-7.68 1.732-1.706 3.897-3.128 6.351-3.128 1.876 0 4.041-.426 4.041-2.702 0-1.706-1.299-2.701-2.887-2.701zm-22.226 7.11c-1.588-2.559-3.753-4.55-6.495-5.83-7.115-3.404-16.443-1.61-21.072 4.978-4.004 5.765-3.629 11.763-.578 17.775 1.444 2.418 3.32 4.409 5.773 5.689 5.196 2.844 10.825 3.128 16.021.284 1.463-.96 2.33-2.234 1.443-3.982-.968-1.909-2.373-1.368-4.384-.595-.64.246-1.342.516-2.11.738-2.021.284-4.33.426-6.351-.285l10.969-9.386.207-.185c1.531-1.372 3.188-2.856 4.845-4.08 2.243-1.769 2.57-3.047 1.732-5.12zm-104.928-7.11h.866c6.35 0 11.402 2.845 14.577 8.533 1.155 2.133 2.02 4.266 2.02 6.826v1.137c0 5.83-3.03 10.24-8.226 13.226-2.454 1.28-5.196 1.706-7.938 1.706h-1.155c-6.062 0-10.825-2.56-13.856-7.679-1.443-2.418-2.164-4.693-2.164-7.395v-1.137c0-5.973 2.886-10.382 8.082-13.368 2.31-1.422 5.052-1.848 7.794-1.848zm37.237 0c2.886 0 5.629.57 8.082 2.134.78.497 1.011 1.238 1.011 1.564v.569c0 1.28-1.011 2.275-2.31 2.56-.8.175-2.489-.543-3.441-.948a17.708 17.708 0 00-.456-.19c-.865-.427-2.453-.854-3.32-.854-4.618-.142-7.937 2.418-9.958 6.4-.722 1.422-1.01 2.844-1.01 4.408 0 4.55 2.453 7.822 6.639 9.812 1.588.854 3.464.854 5.196.854 1.192 0 2.876-.776 4.158-1.367.27-.124.523-.24.749-.34l1.443-.142c1.155.284 2.165 1.422 2.165 2.702v.569c0 3.413-6.206 4.124-8.515 4.266-8.371.569-14.577-3.84-16.887-11.661l-.072-.355c-.263-1.283-.505-2.466-.505-3.769v-1.138c0-5.83 2.887-10.239 8.082-13.225 2.31-1.422 5.052-1.848 7.794-1.848h1.155zM25.363 64.282c5.503 0 9.963-4.395 9.963-9.816 0-5.422-4.46-9.817-9.963-9.817-5.502 0-9.963 4.395-9.963 9.817 0 5.421 4.46 9.816 9.963 9.816zM157.584 44.94a26.907 26.907 0 01-.823-.377c-4.167-2.064-9.644-1.228-13.586 2.775-2.718 2.583-3.599 7.864-1.812 11.507.846 1.466 1.812 1.78 1.812 1.78 1.592 0 1.812 0 2.718-.893l5.434-4.462c.93-.862 4.42-3.687 5.434-4.462.183-.15.386-.308.598-.474 1.315-1.03 2.999-2.348 2.576-3.43-.753-1.255-1.313-1.504-2.351-1.964zM61.659 64.2c5.502 0 9.963-4.394 9.963-9.816 0-5.422-4.46-9.816-9.963-9.816-5.503 0-9.963 4.395-9.963 9.816 0 5.422 4.46 9.817 9.963 9.817z" fill="#464646"/></svg>