<svg width="200" height="100" fill="none" xmlns="http://www.w3.org/2000/svg"><path d="M13.954 43.652c3.73 1.786 24.562 10.177 27.827 11.73 3.264 1.554 5.596 1.554 9.794-.543 4.12-2.176 23.707-10.178 27.438-12.12 1.943-1.01 2.798-1.787 2.798-2.486v-7.07c0-.698-.932-1.32-2.798-2.02l-26.817-10.41c-3.73-1.398-5.207-1.32-9.56.234-4.43 1.553-25.107 9.71-28.76 11.109-1.788.7-2.798 1.398-2.798 2.098H11v7.07c0 .776 1.088 1.553 2.954 2.408zm33.89 1.01l-11.427-4.74 16.401-2.485-4.974 7.224zm24.795-11.265l-9.716 3.806-1.01.389-9.639-3.807 10.727-4.273 9.638 3.885zm-28.37-6.992l-1.555-2.952 4.897 1.942 4.663-1.554-1.243 3.03 4.741 1.787-6.14.621-1.4 3.263-2.176-3.574-7.073-.621 5.285-1.942zm-12.204 4.117c4.819 0 8.783 1.554 8.783 3.419 0 1.864-3.886 3.418-8.783 3.418-4.82 0-8.784-1.554-8.784-3.418 0-1.865 3.964-3.419 8.784-3.419zM13.954 55.771c3.73 1.787 24.562 10.177 27.827 11.73 3.264 1.555 5.596 1.555 9.794-.543 4.12-2.175 23.707-10.177 27.438-12.12 1.943-1.01 2.798-1.786 2.798-2.485v-7.07c0 .7-.932 1.398-2.72 2.408-3.731 1.943-23.319 10.022-27.439 12.12-4.12 2.175-6.451 2.175-9.716.544-3.264-1.554-24.174-9.945-27.905-11.731-1.865-.855-2.953-1.632-2.953-2.331v7.147c-.078.7 1.01 1.399 2.876 2.33zm0 11.653c3.73 1.787 24.562 10.177 27.827 11.731 3.264 1.554 5.596 1.554 9.794-.544 4.12-2.175 23.707-10.177 27.438-12.12 1.943-1.01 2.798-1.786 2.798-2.485v-7.07c0 .7-.932 1.399-2.72 2.409-3.731 1.942-23.319 10.021-27.439 12.119-4.12 2.175-6.451 2.175-9.716.544-3.264-1.554-24.174-9.944-27.905-11.731-1.865-.855-2.953-1.632-2.953-2.33v7.147c-.078.621 1.01 1.398 2.876 2.33z" fill="#464646"/><path fill-rule="evenodd" clip-rule="evenodd" d="M156.333 55.13V34.805c0-1.48-1.166-2.804-2.722-2.804-1.555 0-2.722 1.246-2.722 2.804v9.657c-2.333-1.324-4.433-2.18-6.922-2.18-6.923 0-12.523 5.84-12.523 12.85 0 6.931 5.523 12.772 12.445 12.772 2.567 0 4.978-.857 6.922-2.18.233 1.246 1.322 2.18 2.722 2.18a2.79 2.79 0 002.8-2.804v-9.968zm-52.189-12.772c1.556 0 2.723 1.168 2.723 2.648 0 1.402-1.167 2.726-2.723 2.648-1.166 0-2.255.312-3.111 1.012-1.011.623-1.789 1.48-2.41 2.493-.655.86-1.008 1.805-1.31 2.61-.27.728-.5 1.34-.869 1.673V65.1c0 1.48-1.244 2.726-2.8 2.726C92.167 67.825 91 66.58 91 65.1V44.93a2.624 2.624 0 012.644-2.649c1.556 0 2.8 1.169 2.8 2.648v.39a1.75 1.75 0 00.801-.614c.11-.139.205-.256.366-.32 1.711-1.17 3.967-2.104 6.533-2.026zm1.089 12.773c.078-7.01 5.445-12.85 12.445-12.85 6.689 0 12.211 4.984 12.211 11.993v.234c0 .025.017.077.037.138.041.121.093.277.041.329-.156 1.246-1.089 2.103-2.489 2.103h-16.256c.234.778.778 2.492 1.711 3.348 1.089 1.247 3.111 2.103 4.9 2.259 1.789.156 4.045-.234 5.289-1.246 1.089-1.168 3.111-1.013 3.811-.156.7.701 1.167 2.259 0 3.35-2.489 2.258-5.522 3.348-9.177 3.348-7-.078-12.445-5.841-12.523-12.85zm54.989-20.327c0-1.558 1.167-2.804 2.722-2.804 1.556 0 2.723 1.246 2.723 2.804v1.09c0 1.558-1.167 2.804-2.723 2.804-1.555 0-2.722-1.246-2.722-2.804v-1.09zm2.722 7.476c-1.555 0-2.722 1.169-2.722 2.804v20.015c0 1.558 1.167 2.804 2.722 2.804 1.556 0 2.723-1.246 2.723-2.804V45.162c0-1.636-1.167-2.882-2.723-2.882zm21.312 11.37c1.4.624 2.8 1.48 3.655 2.883.622 1.012 1.011 2.18 1.089 3.27 0 2.493-1.322 4.595-3.189 5.92a12.11 12.11 0 01-6.689 2.024c-3.966 0-7.078-1.869-9.1-3.504-1.166-.935-1.322-2.726-.389-3.816.856-1.169 2.723-1.402 3.811-.39 1.323 1.168 3.578 2.337 5.6 2.259 1.4 0 2.645-.468 3.5-1.013.7-.623.934-1.168.934-1.557 0-.234-.078-.39-.156-.545-.078-.156-.311-.468-.7-.701-1.778-.727-3.23-1.104-4.572-1.453-1.393-.363-2.666-.694-4.061-1.351-1.322-.701-2.567-1.402-3.5-2.804-.545-.857-.856-2.025-.856-3.193 0-2.337 1.323-4.361 3.034-5.608a11.524 11.524 0 016.3-1.869c3.504 0 5.963 1.644 7.598 2.736l.102.068c1.244.857 1.633 2.57.855 3.816a2.741 2.741 0 01-3.811.701c-1.633-1.012-3.111-1.869-4.744-1.869-1.323 0-2.411.39-3.111.935-.7.467-.856.934-.856 1.168 0 .233 0 .311.078.467 0 .078.155.312.544.545.7.468 2.022 1.013 3.734 1.324 1.644.407 4.028 1.145 4.9 1.558zM151 55.989a6.998 6.998 0 01-7 6.996c-3.866 0-7-3.132-7-6.996a6.998 6.998 0 017-6.996c3.866 0 7 3.132 7 6.996zm-40-2h13.839c.954-2.998-2.464-5.996-6.681-5.996-4.217 0-7.158 3.427-7.158 5.997z" fill="#464646"/></svg>