<svg width="92" height="90" fill="none" xmlns="http://www.w3.org/2000/svg"><path fill="#1DB86A" d="M45.129 0l45.13 45-45.13 45-45.13-45z"/><path d="M4.242 27.842h15.101c3.112 0 5.383.72 6.81 2.16 1.429 1.403 2.143 3.58 2.143 6.531v1.511c0 1.944-.33 3.527-.989 4.75-.622 1.224-1.593 2.106-2.91 2.646v.108c3.002 1.007 4.503 3.634 4.503 7.88v3.24c0 2.915-.787 5.146-2.362 6.693-1.538 1.512-3.808 2.267-6.81 2.267H4.241V27.842zm12.393 14.39c1.208 0 2.105-.306 2.69-.917.623-.612.935-.643.935-2.083v-2.105c0-1.368-.257-1.363-.77-1.975-.475-.611-1.244-.917-2.306-.917h-3.908v7.997h3.359zm1.098 17.004c1.062 0 1.85-.27 2.362-.81.512-.576.769-.553.769-1.92v-3.293c0-1.727-.312-1.92-.934-2.568-.586-.684-1.575-1.026-2.966-1.026h-3.688v9.617h4.457zm14.698-31.394h20.467v6.393H42.462v7.997h8.294v7.387h-8.294v9.617h10.436v6.392H32.43V27.842zm23.942 0h10.03v37.786h-10.03V27.842zm19.279 7.387h-6.316v-7.387h22.663v7.387h-6.316v30.4h-10.03v-30.4z" fill="#1E1E1E"/></svg>